<?xml version="1.0" encoding="utf-8"?>
<!-- Generator: Adobe Illustrator 16.0.0, SVG Export Plug-In . SVG Version: 6.00 Build 0)  -->
<!DOCTYPE svg PUBLIC "-//W3C//DTD SVG 1.1//EN" "http://www.w3.org/Graphics/SVG/1.1/DTD/svg11.dtd">
<svg version="1.1" xmlns="http://www.w3.org/2000/svg" xmlns:xlink="http://www.w3.org/1999/xlink" x="0px" y="0px" width="512px"
	 height="512px" viewBox="0 0 512 512" enable-background="new 0 0 512 512" xml:space="preserve">
<g id="Layer_1">
	<linearGradient id="SVGID_1_" gradientUnits="userSpaceOnUse" x1="301.0791" y1="434.2949" x2="96.5042" y2="275.5393">
		<stop  offset="0" style="stop-color:#A02124"/>
		<stop  offset="1" style="stop-color:#6E1311"/>
	</linearGradient>
	<polygon fill="url(#SVGID_1_)" points="38.777,255.999 94.614,200.162 311.838,417.386 256.001,473.224 	"/>
	<linearGradient id="SVGID_2_" gradientUnits="userSpaceOnUse" x1="32.874" y1="148.2866" x2="287.0035" y2="196.4977">
		<stop  offset="0" style="stop-color:#A02124"/>
		<stop  offset="1" style="stop-color:#D74A28"/>
	</linearGradient>
	<polygon fill="url(#SVGID_2_)" points="94.613,311.838 38.776,256 256,38.776 311.838,94.613 	"/>
	<linearGradient id="SVGID_3_" gradientUnits="userSpaceOnUse" x1="344.8975" y1="103.3945" x2="391.5078" y2="274.9206">
		<stop  offset="0" style="stop-color:#E96726"/>
		<stop  offset="1" style="stop-color:#F5851F"/>
	</linearGradient>
	<polygon fill="url(#SVGID_3_)" points="417.387,311.838 473.224,256 332.201,114.977 276.361,170.813 	"/>
	<linearGradient id="SVGID_4_" gradientUnits="userSpaceOnUse" x1="276.3613" y1="298.5918" x2="473.2227" y2="298.5918">
		<stop  offset="0" style="stop-color:#F5851F"/>
		<stop  offset="1" style="stop-color:#F5B31F"/>
	</linearGradient>
	<polygon fill="url(#SVGID_4_)" points="473.223,255.999 417.386,200.162 276.361,341.187 332.198,397.022 	"/>
	<linearGradient id="SVGID_5_" gradientUnits="userSpaceOnUse" x1="322.1221" y1="281.9971" x2="226.5177" y2="244.4092">
		<stop  offset="0" style="stop-color:#A02124"/>
		<stop  offset="1" style="stop-color:#6E1311"/>
	</linearGradient>
	<polygon fill="url(#SVGID_5_)" points="256,320.824 191.176,256 256,191.176 320.824,256 	"/>
	<linearGradient id="SVGID_6_" gradientUnits="userSpaceOnUse" x1="185.5068" y1="306.7891" x2="107.8794" y2="278.5979">
		<stop  offset="0" style="stop-color:#6E1311;stop-opacity:0"/>
		<stop  offset="1" style="stop-color:#4C1311"/>
	</linearGradient>
	<polygon fill="url(#SVGID_6_)" points="94.613,311.838 206.289,311.838 150.451,256 	"/>
	<linearGradient id="SVGID_7_" gradientUnits="userSpaceOnUse" x1="345.2461" y1="341.4902" x2="373.5903" y2="246.8075">
		<stop  offset="0" style="stop-color:#B71F25;stop-opacity:0"/>
		<stop  offset="1" style="stop-color:#B71F25"/>
	</linearGradient>
	<polygon fill="url(#SVGID_7_)" points="417.386,311.838 341.575,387.646 284.514,333.035 361.548,256 	"/>
	<linearGradient id="SVGID_8_" gradientUnits="userSpaceOnUse" x1="430.4883" y1="233.8398" x2="388.8143" y2="304.3179">
		<stop  offset="0" style="stop-color:#E96726"/>
		<stop  offset="1" style="stop-color:#F5851F"/>
	</linearGradient>
	<polygon fill="url(#SVGID_8_)" points="473.223,255.999 417.386,200.162 361.548,256 417.385,311.837 	"/>
	<linearGradient id="SVGID_9_" gradientUnits="userSpaceOnUse" x1="94.0566" y1="235.6626" x2="97.3256" y2="354.9654">
		<stop  offset="0" style="stop-color:#A02124"/>
		<stop  offset="1" style="stop-color:#D74A28"/>
	</linearGradient>
	<polygon fill="url(#SVGID_9_)" points="94.613,311.838 38.776,256 94.615,200.162 150.451,256 	"/>
</g>
<g id="Layer_2">
</g>
</svg>
